<svg width="20" height="20" viewBox="0 0 20 20" fill="none" xmlns="http://www.w3.org/2000/svg">
<path d="M3.00029 17.5833C2.92352 17.5838 2.84742 17.5691 2.77634 17.54C2.70527 17.511 2.64063 17.4682 2.58612 17.4142C2.53145 17.3599 2.48805 17.2954 2.45844 17.2243C2.42882 17.1532 2.41357 17.077 2.41357 17C2.41357 16.923 2.42882 16.8467 2.45844 16.7757C2.48805 16.7046 2.53145 16.6401 2.58612 16.5858L16.5861 2.58583C16.696 2.47599 16.8449 2.41428 17.0003 2.41428C17.1556 2.41428 17.3046 2.47599 17.4145 2.58583C17.5243 2.69567 17.586 2.84465 17.586 3C17.586 3.15534 17.5243 3.30432 17.4145 3.41416L3.41446 17.4142C3.35995 17.4682 3.29531 17.511 3.22424 17.54C3.15316 17.5691 3.07706 17.5838 3.00029 17.5833Z" fill="#8B0000"/>
<path d="M17.0003 17.5833C16.9235 17.5838 16.8474 17.5691 16.7763 17.54C16.7053 17.511 16.6406 17.4682 16.5861 17.4142L2.5861 3.41416C2.47626 3.30432 2.41455 3.15534 2.41455 3C2.41455 2.84465 2.47626 2.69567 2.5861 2.58583C2.69595 2.47599 2.84493 2.41428 3.00027 2.41428C3.15561 2.41428 3.30459 2.47599 3.41444 2.58583L17.4144 16.5858C17.4691 16.6401 17.5125 16.7046 17.5421 16.7757C17.5717 16.8467 17.587 16.923 17.587 17C17.587 17.077 17.5717 17.1532 17.5421 17.2243C17.5125 17.2954 17.4691 17.3599 17.4144 17.4142C17.3599 17.4682 17.2953 17.511 17.2242 17.54C17.1531 17.5691 17.077 17.5838 17.0003 17.5833Z" fill="#8B0000"/>
</svg>
