<svg width="18" height="14" viewBox="0 0 18 14" fill="none" xmlns="http://www.w3.org/2000/svg">
<path d="M0.875 0.75H17.125C17.2908 0.75 17.4497 0.815848 17.5669 0.933058C17.6842 1.05027 17.75 1.20924 17.75 1.375C17.75 1.54076 17.6842 1.69973 17.5669 1.81694C17.4497 1.93415 17.2908 2 17.125 2H0.875C0.70924 2 0.550268 1.93415 0.433058 1.81694C0.315847 1.69973 0.25 1.54076 0.25 1.375C0.25 1.20924 0.315847 1.05027 0.433058 0.933058C0.550268 0.815848 0.70924 0.75 0.875 0.75Z" fill="white"/>
<path d="M17.125 7.625H9C8.83424 7.625 8.67527 7.55915 8.55806 7.44194C8.44085 7.32473 8.375 7.16576 8.375 7C8.375 6.83424 8.44085 6.67527 8.55806 6.55806C8.67527 6.44085 8.83424 6.375 9 6.375H17.125C17.2908 6.375 17.4497 6.44085 17.5669 6.55806C17.6842 6.67527 17.75 6.83424 17.75 7C17.75 7.16576 17.6842 7.32473 17.5669 7.44194C17.4497 7.55915 17.2908 7.625 17.125 7.625Z" fill="white"/>
<path d="M3.375 12H17.125C17.2908 12 17.4497 12.0658 17.5669 12.1831C17.6842 12.3003 17.75 12.4592 17.75 12.625C17.75 12.7908 17.6842 12.9497 17.5669 13.0669C17.4497 13.1842 17.2908 13.25 17.125 13.25H3.375C3.20924 13.25 3.05027 13.1842 2.93306 13.0669C2.81585 12.9497 2.75 12.7908 2.75 12.625C2.75 12.4592 2.81585 12.3003 2.93306 12.1831C3.05027 12.0658 3.20924 12 3.375 12Z" fill="white"/>
</svg>
