<svg width="22" height="22" viewBox="0 0 22 22" fill="none" xmlns="http://www.w3.org/2000/svg">
<g clip-path="url(#clip0_1_48)">
<path fill-rule="evenodd" clip-rule="evenodd" d="M13.7294 15.1738C12.5651 16.0356 16.1855 12.3334 15.1553 13.7407C15.1811 13.7387 15.1333 13.8167 14.9731 14.0123C14.9731 14.0123 17.7245 16.7451 19.0751 18.1359C19.544 18.6429 18.698 19.6549 18.1232 19.1266C16.9002 17.94 14.0061 14.9909 14.0017 14.9861L13.7294 15.1738Z" fill="#8F99A1"/>
<path d="M9.68652 16.5557C11.4568 16.5385 13.2093 15.8053 14.4695 14.5599C15.9661 13.0807 16.7368 10.8924 16.468 8.80308C16.0074 5.22293 13.0642 2.7933 9.64252 2.7933C7.04273 2.7933 4.51617 4.41959 3.40792 6.77771C2.55955 8.58309 2.55783 10.7628 3.40792 12.5713C4.50827 14.9129 6.99358 16.5306 9.59817 16.5557C9.62773 16.5557 9.6573 16.5557 9.68652 16.5557ZM9.60539 15.4086C6.96161 15.3831 4.49486 13.3385 4.00433 10.7171C3.65852 8.86909 4.3113 6.86915 5.67117 5.55671C7.25861 4.02393 9.75389 3.51071 11.8288 4.37937C13.685 5.15659 15.0745 6.96127 15.3305 8.94952C15.5499 10.6538 14.9383 12.44 13.7366 13.6702C12.6823 14.7496 11.2038 15.3938 9.6793 15.4086C9.65455 15.4086 9.63014 15.4086 9.60539 15.4086Z" fill="#8F99A1"/>
</g>
<defs>
<clipPath id="clip0_1_48">
<rect width="22" height="22" fill="white"/>
</clipPath>
</defs>
</svg>
