<svg width="20" height="20" viewBox="0 0 20 20" fill="none" xmlns="http://www.w3.org/2000/svg">
<path d="M3.00005 17.5833C2.92328 17.5838 2.84717 17.5691 2.7761 17.54C2.70503 17.511 2.64039 17.4682 2.58588 17.4142C2.5312 17.3599 2.48781 17.2954 2.45819 17.2243C2.42858 17.1532 2.41333 17.077 2.41333 17C2.41333 16.923 2.42858 16.8467 2.45819 16.7757C2.48781 16.7046 2.5312 16.6401 2.58588 16.5858L16.5859 2.58583C16.6957 2.47599 16.8447 2.41428 17 2.41428C17.1554 2.41428 17.3044 2.47599 17.4142 2.58583C17.5241 2.69567 17.5858 2.84465 17.5858 3C17.5858 3.15534 17.5241 3.30432 17.4142 3.41416L3.41421 17.4142C3.35971 17.4682 3.29506 17.511 3.22399 17.54C3.15292 17.5691 3.07682 17.5838 3.00005 17.5833Z" fill="#8F99A1"/>
<path d="M17 17.5833C16.9233 17.5838 16.8472 17.5691 16.7761 17.54C16.705 17.511 16.6404 17.4682 16.5859 17.4142L2.58586 3.41416C2.47602 3.30432 2.41431 3.15534 2.41431 3C2.41431 2.84465 2.47602 2.69567 2.58586 2.58583C2.6957 2.47599 2.84468 2.41428 3.00003 2.41428C3.15537 2.41428 3.30435 2.47599 3.41419 2.58583L17.4142 16.5858C17.4689 16.6401 17.5123 16.7046 17.5419 16.7757C17.5715 16.8467 17.5867 16.923 17.5867 17C17.5867 17.077 17.5715 17.1532 17.5419 17.2243C17.5123 17.2954 17.4689 17.3599 17.4142 17.4142C17.3597 17.4682 17.295 17.511 17.224 17.54C17.1529 17.5691 17.0768 17.5838 17 17.5833Z" fill="#8F99A1"/>
</svg>
